<svg width="101" height="16" viewBox="0 0 101 16" fill="none" xmlns="http://www.w3.org/2000/svg">
<path d="M83.1519 1.12881L83.3436 12.3538H83.2477L79.9977 1.13297H74.6519V15.2663H78.1852L77.9936 3.66214H78.0894L81.5727 15.2663H86.6852V1.13297L83.1519 1.12881ZM15.8602 1.12881L13.1894 15.4121H17.0561L19.0144 2.42047H19.1102L21.0227 15.4121H24.8394L22.2144 1.13297L15.8602 1.12881ZM37.4477 1.12881L35.6811 12.0205H35.5852L33.8186 1.13297H27.9977L27.7102 15.4121H31.2936L31.3894 2.56631H31.4352L33.8227 15.4121H37.4519L39.8394 2.56631H39.9352L40.0311 15.4121H43.6144L43.2811 1.13297L37.4477 1.12881ZM7.17272 11.3538C7.28133 11.6935 7.29716 12.056 7.21855 12.4038C7.12272 12.8788 6.78939 13.358 5.83522 13.358C4.92689 13.358 4.40189 12.833 4.40189 12.0663V10.683H0.581055V11.783C0.581055 14.983 3.11022 15.9371 5.78939 15.9371C8.36439 15.9371 10.5144 15.0288 10.8477 12.6871C11.0394 11.4455 10.8977 10.6371 10.8477 10.3496C10.1811 7.34131 4.73522 6.47881 4.35189 4.80797C4.3042 4.55604 4.3042 4.2974 4.35189 4.04547C4.44772 3.56631 4.78522 3.08714 5.64355 3.08714C6.50189 3.08714 6.97689 3.61631 6.97689 4.37881V5.23714H10.5602V4.23714C10.5602 1.13297 7.74355 0.653809 5.73939 0.653809C3.20605 0.653809 1.10605 1.51214 0.722721 3.80798C0.597324 4.43989 0.614405 5.09182 0.772721 5.71631C1.34355 8.67464 6.45605 9.53714 7.17272 11.3496M53.6394 11.3496C53.7811 11.683 53.7311 12.1163 53.6852 12.4038C53.5894 12.8788 53.2561 13.358 52.3019 13.358C51.3936 13.358 50.8686 12.833 50.8686 12.0663V10.683H47.0477V11.783C47.0477 14.933 49.5311 15.8871 52.2061 15.8871C54.7852 15.8871 56.8852 15.0288 57.2186 12.6413C57.4102 11.3996 57.2686 10.6371 57.2186 10.2996C56.6477 7.34131 51.2477 6.43297 50.8686 4.80797C50.8205 4.55608 50.8205 4.29736 50.8686 4.04547C50.9644 3.56631 51.2977 3.08714 52.1602 3.08714C52.9686 3.08714 53.4936 3.61631 53.4936 4.37881V5.23714H57.0269V4.23714C57.0269 1.13297 54.2561 0.653809 52.2519 0.653809C49.7227 0.653809 47.6686 1.46631 47.2852 3.80798C47.1894 4.42881 47.1894 4.99964 47.3352 5.71631C47.906 8.67464 52.9186 9.48714 53.6394 11.3496ZM65.6727 13.2621C66.6727 13.2621 66.9644 12.5955 67.0561 12.2121C67.1061 12.0663 67.106 11.8288 67.106 11.6871V1.12881H70.7311V11.3955C70.7311 11.683 70.7311 12.208 70.6894 12.3538C70.4477 15.0246 68.3477 15.883 65.7186 15.883C63.0936 15.883 60.9936 15.0246 60.7519 12.3496C60.7519 12.208 60.7061 11.683 60.7061 11.3955V1.12881H64.3311V11.683C64.3311 11.8746 64.3311 12.0621 64.3811 12.208C64.3811 12.5871 64.6727 13.258 65.6727 13.258M95.4727 13.1163C96.5227 13.1163 96.856 12.4496 96.9519 12.0621C96.9977 11.9205 96.9977 11.683 96.9977 11.5371V9.48297H95.5185V7.38297H100.581V11.2038C100.581 11.4913 100.581 11.683 100.535 12.1621C100.294 14.7871 98.0477 15.6913 95.5185 15.6913C92.9894 15.6913 90.7436 14.7871 90.5061 12.158C90.4561 11.683 90.456 11.4913 90.456 11.2038V5.18714C90.456 4.94964 90.5061 4.47047 90.5061 4.22881C90.8394 1.55797 92.9894 0.699641 95.5185 0.699641C98.0477 0.699641 100.248 1.55797 100.531 4.23297C100.581 4.66214 100.581 5.18714 100.581 5.18714V5.66631H96.9977V4.85381C96.9977 4.85381 96.9977 4.52047 96.9519 4.32881C96.9019 3.99547 96.6185 3.27881 95.5185 3.27881C94.4685 3.27881 94.1852 3.94547 94.0852 4.32881C94.0394 4.51631 94.0394 4.75797 94.0394 4.99547V11.5371C94.0394 11.7288 94.0394 11.9205 94.0852 12.0621C94.0852 12.4455 94.4686 13.1163 95.4727 13.1163Z" fill="#131314"/>
</svg>
