<svg width="100" height="20" viewBox="0 0 100 20" fill="none" xmlns="http://www.w3.org/2000/svg">
<path d="M68.5775 0.713806V12.9793C68.5775 14.9172 69.7067 15.7354 71.4767 15.7354C71.969 15.7354 72.2894 15.6862 72.4355 15.6377V14.0108C72.2167 14.0319 72.094 14.0319 71.8955 14.0319C71.0828 14.0319 70.4452 13.6959 70.4452 12.7409V0.714587L68.5775 0.713806ZM30.0456 1.07405C29.286 1.07405 28.7421 1.52885 28.7421 2.34389C28.7421 3.15893 29.286 3.61373 30.0456 3.61373C30.809 3.61373 31.349 3.13471 31.349 2.34389C31.349 1.52885 30.809 1.07405 30.0456 1.07405ZM75.1893 1.07405C74.429 1.07405 73.8859 1.52885 73.8859 2.34389C73.8859 3.15893 74.429 3.61373 75.1893 3.61373C75.952 3.61373 76.4927 3.13471 76.4927 2.34389C76.4927 1.52885 75.952 1.07405 75.1893 1.07405ZM24.588 1.81642V11.5657C24.588 12.9543 24.0199 13.9131 22.3749 13.9131C21.6607 13.9131 20.9496 13.7943 20.3573 13.5529V15.3994C20.8972 15.5916 21.6881 15.7565 22.6953 15.7565C25.3757 15.7565 26.5291 13.9826 26.5291 11.4469V1.81564L24.588 1.81642ZM59.2307 1.81642L53.6263 15.662H55.8143L56.9935 12.5487C58.1992 12.762 59.3065 12.9082 60.4123 12.9082C61.5446 12.9082 62.6495 12.7894 63.9288 12.5245L65.1095 15.662H67.2983L61.6907 1.81564L59.2307 1.81642ZM0 2.62442C0 5.17973 2.06691 7.26071 4.60033 7.26071H8.85214V11.5774H13.4494V3.39414C13.4494 2.99717 13.129 2.64943 12.7382 2.64943L0 2.62442ZM8.85214 11.5774H4.60033V7.26071H0V15.4478C0 15.8448 0.32039 16.1894 0.71111 16.1894H13.4251C13.4268 14.9725 12.9468 13.8043 12.0899 12.9401C11.2331 12.076 10.0691 11.586 8.85214 11.5774ZM60.4607 3.34726L63.3396 10.9428C62.2346 11.1101 61.2969 11.2046 60.3873 11.2289C59.53 11.2289 58.6415 11.1312 57.585 10.9632L60.4607 3.34726ZM44.7499 4.90467C41.7249 4.90467 40.2019 7.41934 40.2019 10.3904C40.2019 13.5028 41.6546 15.8753 44.5295 15.8753C46.2026 15.8753 47.5029 15.1579 48.1929 13.7685V15.6581H50.0606V5.12269H48.1929V6.96923C47.5545 5.60171 46.3214 4.90857 44.7499 4.90857V4.90467ZM82.7622 4.90467C79.7646 4.90467 78.2627 7.41934 78.2627 10.3904C78.2627 13.5028 79.6888 15.8753 82.5426 15.8753C84.2149 15.8753 85.516 15.1579 86.2053 13.7685V14.7727C86.2053 16.7388 85.2714 18.1524 82.5669 18.1524C81.2384 18.1524 79.9842 17.9109 78.8066 17.5296V19.2996C79.8623 19.6356 80.8454 19.877 82.6646 19.877C86.5264 19.877 88.0252 17.7922 88.0252 14.7031V5.12191H86.2053V6.9661C85.5645 5.60093 84.3376 4.90779 82.7622 4.90779V4.90467ZM96.0928 4.92811C94.6393 4.92811 93.3609 5.62437 92.674 6.86999V5.14613H90.8064V15.6838H92.674V9.81679C92.674 7.68581 93.8766 6.55976 95.5982 6.55976C97.3689 6.55976 98.1558 7.39589 98.1558 9.29167V15.6588H100V9.505C100 6.60586 98.5747 4.9328 96.0928 4.9328V4.92811ZM39.0813 4.94061C37.216 4.94374 36.2267 5.79863 35.6289 6.96454V5.12034H33.8097V15.662H35.6289V9.43389C35.6289 7.18178 37.0785 6.48786 39.4658 6.72698V4.95311C39.3377 4.94694 39.2096 4.94382 39.0813 4.94374V4.94061ZM29.1117 5.12034V15.6581H30.9794V5.12269L29.1117 5.12034ZM74.2305 5.12034V15.6581H76.0981V5.12269L74.2305 5.12034ZM45.2164 6.58007C46.816 6.58007 48.1687 7.61157 48.1687 9.95901V10.7991C48.1687 13.1457 46.6941 14.1749 45.0211 14.1749C43.1042 14.1749 42.0696 12.9293 42.0453 10.3654C42.0453 7.92336 43.1284 6.58007 45.2164 6.58007ZM83.2327 6.58007C84.8291 6.58007 86.181 7.61157 86.181 9.95901V10.7991C86.181 13.1457 84.7065 14.1749 83.0342 14.1749C81.1173 14.1749 80.085 12.9293 80.0577 10.3654C80.0577 7.92336 81.1415 6.58007 83.2327 6.58007Z" fill="#131314"/>
</svg>
