<svg width="87" height="25" viewBox="0 0 87 25" fill="none" xmlns="http://www.w3.org/2000/svg">
<path d="M15.7369 18.0248C16.0058 19.0322 16.436 19.423 17.1961 19.423C17.9849 19.423 18.3972 18.9498 18.3972 18.0248V0.836852H23.3413V18.0248C23.3413 20.4449 23.0258 21.4954 21.7996 22.7215C20.9141 23.6107 19.2792 24.2955 17.2176 24.2955C15.554 24.2955 13.9586 23.7433 12.9439 22.7251C12.0512 21.8288 11.56 20.9145 10.7964 18.0248L7.76319 6.56616C7.49788 5.55869 7.06764 5.16789 6.30756 5.16789C5.51879 5.16789 5.1029 5.64116 5.1029 6.56616V23.7541H0.162354V6.56616C0.162354 4.14609 0.47786 3.09559 1.70403 1.86942C2.5896 0.980264 4.2245 0.295471 6.28605 0.295471C7.94963 0.295471 9.54508 0.847606 10.5597 1.86583C11.4525 2.76216 11.9401 3.67641 12.7073 6.56616L15.7369 18.0248ZM81.1005 23.7541L75.3963 5.89929C75.3529 5.73014 75.2801 5.56994 75.1812 5.42603C75.1007 5.32836 74.9985 5.25089 74.8827 5.19983C74.7669 5.14878 74.6407 5.12556 74.5143 5.13204C74.3885 5.12613 74.2631 5.14962 74.1479 5.20065C74.0328 5.25169 73.9311 5.32886 73.851 5.42603C73.752 5.56991 73.6792 5.73011 73.6359 5.89929L67.9317 23.7541H62.8226L69.0575 4.25006C69.3802 3.23542 69.8463 2.37136 70.4342 1.79771C71.4453 0.811753 72.6356 0.295471 74.5143 0.295471C76.3966 0.295471 77.5869 0.811755 78.598 1.8013C79.186 2.37495 79.652 3.23542 79.9747 4.25006L86.2096 23.7541H81.1005ZM55.8456 23.7541C59.0832 23.7541 60.6643 23.0657 61.912 21.8252C63.2923 20.452 63.952 18.9498 63.952 16.709C63.952 14.7263 63.2278 12.8942 62.1235 11.7971C60.6786 10.363 58.886 9.90766 55.9604 9.90766H51.866C50.3028 9.90766 49.6789 9.71764 49.1842 9.23362C48.8471 8.90019 48.6858 8.40901 48.6858 7.8246C48.6858 7.22227 48.8292 6.62711 49.2451 6.21839C49.6144 5.85986 50.1163 5.69135 51.0772 5.69135H62.9123V0.836852H51.9807C48.7432 0.836852 47.1656 1.52523 45.918 2.76574C44.5376 4.13891 43.8743 5.64115 43.8743 7.88197C43.8743 9.86464 44.6021 11.6967 45.7028 12.7938C47.1513 14.2279 48.9439 14.6833 51.8696 14.6833H55.9604C57.5272 14.6833 58.1474 14.8733 58.6422 15.3573C58.9828 15.6908 59.1441 16.1819 59.1441 16.7663C59.1441 17.3723 58.9971 17.9674 58.5812 18.3726C58.2155 18.7311 57.7136 18.8996 56.7527 18.8996H44.5448L39.8624 4.25006C39.5397 3.23542 39.0736 2.37136 38.4856 1.79771C37.4746 0.811753 36.2807 0.295471 34.402 0.295471C32.5233 0.295471 31.3294 0.811755 30.3219 1.8013C29.7303 2.37495 29.2678 3.23542 28.9416 4.25006L22.7103 23.7541H27.8158L33.5236 5.89929C33.567 5.73014 33.6398 5.56994 33.7387 5.42603C33.8188 5.32886 33.9204 5.25169 34.0356 5.20065C34.1507 5.14962 34.2762 5.12613 34.402 5.13204C34.696 5.13204 34.9111 5.23243 35.0688 5.42603C35.1679 5.56987 35.2407 5.73009 35.284 5.89929L40.9882 23.7541H55.8456Z" fill="#131314"/>
</svg>
