<svg width="24" height="25" viewBox="0 0 24 25" fill="none" xmlns="http://www.w3.org/2000/svg">
<path d="M10.5 3.8916C9.3555 3.8916 8.2875 4.2111 7.377 4.7676C7.28289 4.26422 7.11136 3.77846 6.8685 3.3276C8.01044 2.69565 9.29753 2.37264 10.6025 2.39048C11.9076 2.40833 13.1853 2.76642 14.3096 3.42935C15.4338 4.09229 16.3656 5.03713 17.0128 6.17048C17.66 7.30383 18.0003 8.58646 18 9.8916H21.7515C22.348 9.892 22.9199 10.1292 23.3415 10.5511C23.7632 10.9731 24 11.5451 24 12.1416V21.1416C24 21.7383 23.7629 22.3106 23.341 22.7326C22.919 23.1546 22.3467 23.3916 21.75 23.3916H12.75C12.1533 23.3916 11.581 23.1546 11.159 22.7326C10.7371 22.3106 10.5 21.7383 10.5 21.1416V17.3916C9.45657 17.3929 8.42443 17.1758 7.47 16.7541C7.4895 16.2441 7.5 15.7086 7.5 15.1416V15.0891C8.382 15.5991 9.4065 15.8916 10.5 15.8916V12.1416C10.5 11.5449 10.7371 10.9726 11.159 10.5506C11.581 10.1287 12.1533 9.8916 12.75 9.8916H16.5C16.5 8.3003 15.8679 6.77418 14.7426 5.64896C13.6174 4.52374 12.0913 3.8916 10.5 3.8916ZM17.85 11.3916C17.555 12.8325 16.8433 14.1549 15.8033 15.1949C14.7633 16.2349 13.4408 16.9466 12 17.2416V21.1416C12 21.3405 12.079 21.5313 12.2197 21.6719C12.3603 21.8126 12.5511 21.8916 12.75 21.8916H21.75C21.9489 21.8916 22.1397 21.8126 22.2803 21.6719C22.421 21.5313 22.5 21.3405 22.5 21.1416V12.1416C22.5 11.9427 22.421 11.7519 22.2803 11.6113C22.1397 11.4706 21.9489 11.3916 21.75 11.3916H17.85ZM16.311 11.3916H12.75C12.5511 11.3916 12.3603 11.4706 12.2197 11.6113C12.079 11.7519 12 11.9427 12 12.1416V15.7026C13.0377 15.4338 13.9847 14.8923 14.7427 14.1343C15.5007 13.3763 16.0422 12.4293 16.311 11.3916ZM3.8715 1.0791C3.99601 1.18801 4.08102 1.33501 4.1133 1.49725C4.14558 1.65948 4.12333 1.82783 4.05 1.9761C4.0373 2.01999 4.03074 2.06542 4.0305 2.1111C4.0305 2.2056 4.0545 2.3856 4.281 2.6106C4.3905 2.7201 4.4745 2.7981 4.566 2.8836C4.641 2.9526 4.7205 3.0246 4.821 3.1236C5.016 3.3096 5.2215 3.5286 5.406 3.8031C5.7885 4.3776 6 5.0961 6 6.1416C6 7.4211 5.526 8.5116 4.7865 9.1806L4.8825 9.2916C5.3025 9.8076 5.547 10.4766 5.7 11.1366C6 12.4416 6 14.0106 6 15.1041V15.1416C6 19.3221 5.4315 21.6936 4.806 23.0496C4.491 23.7321 4.1565 24.1671 3.867 24.4401C3.7493 24.553 3.61952 24.6526 3.48 24.7371C3.41612 24.7756 3.34943 24.8092 3.2805 24.8376C3.2805 24.8376 3.111 24.8916 3 24.8916C2.889 24.8916 2.7195 24.8376 2.7195 24.8376C2.64982 24.8108 2.58299 24.7772 2.52 24.7371C2.38048 24.6526 2.2507 24.553 2.133 24.4401C1.8435 24.1656 1.509 23.7321 1.194 23.0496C0.5685 21.6936 0 19.3221 0 15.1416V15.1041C0 14.0091 6.70552e-08 12.4416 0.3 11.1366C0.453 10.4766 0.6975 9.8076 1.1175 9.2916C1.1475 9.2541 1.1805 9.2166 1.2135 9.1806C0.474 8.5116 0 7.4211 0 6.1416C0 5.6526 0.1305 5.0691 0.3105 4.5306C0.4905 3.9906 0.7425 3.4326 1.0335 2.9826C1.38 2.3976 1.8675 1.9071 2.2455 1.5771C2.45274 1.39485 2.66901 1.22313 2.8935 1.0626L2.9385 1.0326L2.952 1.0221L2.9565 1.0191L2.9595 1.0176C3.09704 0.925918 3.26103 0.882241 3.42595 0.893363C3.59088 0.904484 3.74751 0.969781 3.8715 1.0791ZM3 8.3916C3.5805 8.3901 4.5 7.7466 4.5 6.1416C4.5 5.3121 4.3365 4.9056 4.1565 4.6356C4.04706 4.4779 3.92082 4.33255 3.78 4.2021L3.594 4.0281C3.4725 3.9141 3.33 3.7821 3.219 3.6726C3.05494 3.51025 2.91411 3.32601 2.8005 3.1251C2.60957 3.32586 2.44153 3.54722 2.2995 3.7851C2.0895 4.1076 1.8855 4.5501 1.734 5.0061C1.578 5.4711 1.5 5.8821 1.5 6.1416C1.5 7.7496 2.4225 8.3916 3 8.3916ZM2.28 10.2396C2.067 10.4991 1.89 10.9131 1.761 11.4741C1.503 12.5961 1.5 14.0061 1.5 15.1416C1.5 19.2111 2.0565 21.3396 2.556 22.4211C2.721 22.7766 2.8755 23.0136 3 23.1711C3.17723 22.9396 3.32627 22.6878 3.444 22.4211C3.9435 21.3396 4.5 19.2111 4.5 15.1416C4.5 14.0061 4.497 12.5961 4.2375 11.4741C4.1085 10.9131 3.9315 10.4991 3.72 10.2396C3.63726 10.1275 3.52847 10.0372 3.40302 9.97659C3.27758 9.91596 3.13925 9.88679 3 9.8916H2.997C2.85823 9.88715 2.72046 9.9165 2.59556 9.97713C2.47065 10.0377 2.36236 10.1278 2.28 10.2396Z" fill="white"/>
</svg>
