<svg width="80" height="19" viewBox="0 0 80 19" fill="none" xmlns="http://www.w3.org/2000/svg">
<path d="M78.2818 11.4474C78.8627 11.4474 79.2099 11.8604 79.2099 12.537V14.8556H79.999V12.4839C79.999 11.3335 79.4568 10.6663 78.4377 10.6663C78.0388 10.6663 77.4056 10.7755 77.0283 11.5091C76.9406 11.2927 76.796 11.1041 76.6097 10.9633C76.4234 10.8226 76.2024 10.7349 75.9703 10.7097C75.8241 10.6829 75.6752 10.6742 75.5269 10.6837C75.2027 10.7097 74.625 10.9116 74.409 11.3688V10.754H73.6191V14.8556H74.409V12.6423C74.409 11.7812 74.9724 11.4474 75.5365 11.4474C76.0652 11.4474 76.4127 11.8517 76.4127 12.5282V14.8556H77.1976V12.6423C77.1976 11.9567 77.6092 11.4394 78.2816 11.4474M70.7203 14.1702C70.8993 14.1739 71.0771 14.1405 71.2426 14.0721C71.4081 14.0038 71.5576 13.9019 71.6818 13.773C71.8071 13.6431 71.9049 13.4892 71.9692 13.3206C72.0335 13.1519 72.063 12.972 72.056 12.7917C72.056 11.9655 71.4484 11.4474 70.7203 11.4474C69.9916 11.4474 69.3844 11.9655 69.3844 12.7917C69.3772 12.9715 69.4064 13.151 69.4703 13.3192C69.5343 13.4874 69.6316 13.641 69.7564 13.7706C69.88 13.8995 70.0288 14.0014 70.1936 14.0702C70.3584 14.139 70.5355 14.173 70.714 14.1702H70.7203ZM70.7203 14.9394C69.5666 14.9394 68.6035 14.0872 68.6035 12.787C68.6035 11.4868 69.5664 10.6614 70.7203 10.6614C71.874 10.6614 72.8451 11.4868 72.8451 12.787C72.8451 14.0872 71.8685 14.9433 70.7148 14.9433L70.7203 14.9394ZM64.54 12.787L64.5322 12.7917C64.5322 11.4915 65.5205 10.6663 66.682 10.6614C66.9738 10.6558 67.2636 10.7115 67.5326 10.8249C67.8015 10.9383 68.0437 11.1069 68.2433 11.3198L67.6451 11.8296C67.5181 11.7048 67.3676 11.6064 67.2023 11.5401C67.037 11.4738 66.8603 11.4409 66.6822 11.4433C65.9541 11.4433 65.3209 11.9616 65.3209 12.787C65.3209 13.3448 65.6525 13.8476 66.1615 14.061C66.4103 14.1653 66.6847 14.1925 66.9492 14.1392C67.2136 14.0859 67.4561 13.9545 67.6451 13.762L68.2521 14.2716C68.0518 14.4867 67.8085 14.6574 67.5381 14.7724C67.2676 14.8875 66.9759 14.9444 66.682 14.9396C65.5291 14.9396 64.54 14.0872 64.54 12.787ZM62.0133 14.0683C62.0116 13.9235 62.0675 13.7839 62.1687 13.6803C62.2699 13.5768 62.4081 13.5176 62.5529 13.5159C62.6977 13.5176 62.8359 13.5768 62.9371 13.6803C63.0383 13.7839 63.0942 13.9235 63.0926 14.0683C63.0855 14.2071 63.0257 14.338 62.9254 14.4343C62.8251 14.5306 62.6919 14.585 62.5529 14.5864C62.4139 14.585 62.2807 14.5306 62.1804 14.4343C62.0801 14.338 62.0204 14.2071 62.0133 14.0683ZM64.1722 5.53994H61.3621L59.3926 10.6181L57.4332 5.53994H54.623L58.0392 13.5642L55.9146 18.8692H58.7041L64.1722 5.53994ZM47.0824 10.003C47.0824 11.2851 48.2029 12.1286 49.3037 12.1286C50.3855 12.1286 51.4482 11.3435 51.4482 10.0022C51.4482 8.66104 50.3855 7.87529 49.3037 7.87529C48.2029 7.87529 47.0824 8.71963 47.0824 10.0022V10.003ZM51.4482 14.4835V13.4683C50.8785 14.331 49.549 14.6569 48.867 14.6569C46.6084 14.6569 44.3492 12.8765 44.3492 10.0022C44.3492 7.129 46.6076 5.34834 48.8668 5.34834C49.4359 5.34834 50.7652 5.53838 51.4482 6.53545V5.54326H54.0676V14.4853L51.4484 14.4845L51.4482 14.4835ZM43.6037 14.4835H40.9845V13.3726C40.5469 14.1956 39.4855 14.6753 38.384 14.6753C36.1058 14.6753 34.0933 12.8558 34.0933 10.0386C34.0933 7.16846 36.1058 5.34678 38.384 5.34678C39.484 5.34678 40.5484 5.80576 40.9844 6.62959V0.668457H43.6037V14.4835ZM40.9273 9.98252C40.9273 8.6419 39.9595 7.85615 38.8779 7.85615C37.7574 7.85615 36.8267 8.69893 36.8267 9.98252C36.8267 11.3071 37.7574 12.146 38.8771 12.146C39.9795 12.1476 40.9273 11.2661 40.9273 9.98252ZM27.6172 9.75147C27.6172 8.39209 28.3199 7.93213 29.2496 7.93213C30.1414 7.93213 30.7873 8.52568 30.7873 9.7126V14.4821H33.4256V9.13897C33.4256 6.59248 32.1721 5.34678 30.1787 5.34678C29.1349 5.34678 28.0912 5.94053 27.6162 6.84092V5.53994H24.9795V14.4821H27.6172V9.75147ZM19.6222 14.6356C17.1168 14.6356 15.0269 12.7974 15.0269 9.98174C15.0269 7.16455 17.1144 5.34443 19.6222 5.34443C22.1301 5.34443 24.2355 7.16455 24.2355 9.98174C24.2355 12.7989 22.1275 14.6364 19.6222 14.6364V14.6356ZM19.6222 12.0321C20.7222 12.0321 21.6345 11.2265 21.6345 9.98252C21.6345 8.77568 20.723 7.95186 19.6222 7.95186C19.3572 7.94774 19.0941 7.99761 18.8489 8.09845C18.6038 8.19928 18.3817 8.34896 18.1963 8.53838C18.0097 8.72879 17.8634 8.95475 17.7659 9.20283C17.6685 9.45092 17.6218 9.71607 17.6289 9.98252C17.6297 11.228 18.5404 12.0321 19.6222 12.0321ZM10.2969 7.93291C11.0748 7.93291 11.7586 8.54619 11.7586 9.71338V14.4837H14.3777V9.40479C14.3777 6.70479 13.065 5.34522 10.9607 5.34522C10.3357 5.34522 9.15798 5.53525 8.30349 6.93428C7.80974 5.8999 6.86092 5.36338 5.45857 5.36338C4.97171 5.36091 4.49443 5.49872 4.08382 5.76033C3.67321 6.02193 3.34663 6.39627 3.14314 6.83857V5.54072H0.503296V14.4829H3.1408V9.75147C3.1408 8.39209 3.88142 7.93213 4.6783 7.93213C5.43806 7.93213 6.12029 8.52568 6.14002 9.65576V14.4829H8.7783V9.75147C8.7783 8.45127 9.46189 7.93369 10.2969 7.93369V7.93291Z" fill="white"/>
</svg>
