<svg width="101" height="16" viewBox="0 0 101 16" fill="none" xmlns="http://www.w3.org/2000/svg">
<path d="M83.0708 0.779197L83.2625 12.0042H83.1667L79.9167 0.783365H74.5708V14.9167H78.1042L77.9125 3.31253H78.0083L81.4917 14.9167H86.6042V0.783365L83.0708 0.779197ZM15.7792 0.779197L13.1083 15.0625H16.975L18.9333 2.07086H19.0292L20.9417 15.0625H24.7583L22.1333 0.783365L15.7792 0.779197ZM37.3667 0.779197L35.6 11.6709H35.5042L33.7375 0.783365H27.9167L27.6292 15.0625H31.2125L31.3083 2.2167H31.3542L33.7417 15.0625H37.3708L39.7583 2.2167H39.8542L39.95 15.0625H43.5333L43.2 0.783365L37.3667 0.779197ZM7.09167 11.0042C7.20028 11.3439 7.2161 11.7064 7.1375 12.0542C7.04167 12.5292 6.70833 13.0084 5.75417 13.0084C4.84583 13.0084 4.32083 12.4834 4.32083 11.7167V10.3334H0.5V11.4334C0.5 14.6334 3.02917 15.5875 5.70833 15.5875C8.28333 15.5875 10.4333 14.6792 10.7667 12.3375C10.9583 11.0959 10.8167 10.2875 10.7667 10C10.1 6.9917 4.65417 6.1292 4.27083 4.45836C4.22315 4.20643 4.22315 3.94779 4.27083 3.69586C4.36667 3.2167 4.70417 2.73753 5.5625 2.73753C6.42083 2.73753 6.89583 3.2667 6.89583 4.0292V4.88753H10.4792V3.88753C10.4792 0.783365 7.6625 0.304199 5.65833 0.304199C3.125 0.304199 1.025 1.16253 0.641667 3.45837C0.516269 4.09028 0.53335 4.74221 0.691667 5.3667C1.2625 8.32503 6.375 9.18753 7.09167 11M53.5583 11C53.7 11.3334 53.65 11.7667 53.6042 12.0542C53.5083 12.5292 53.175 13.0084 52.2208 13.0084C51.3125 13.0084 50.7875 12.4834 50.7875 11.7167V10.3334H46.9667V11.4334C46.9667 14.5834 49.45 15.5375 52.125 15.5375C54.7042 15.5375 56.8042 14.6792 57.1375 12.2917C57.3292 11.05 57.1875 10.2875 57.1375 9.95003C56.5667 6.9917 51.1667 6.08336 50.7875 4.45836C50.7394 4.20647 50.7394 3.94775 50.7875 3.69586C50.8833 3.2167 51.2167 2.73753 52.0792 2.73753C52.8875 2.73753 53.4125 3.2667 53.4125 4.0292V4.88753H56.9458V3.88753C56.9458 0.783365 54.175 0.304199 52.1708 0.304199C49.6417 0.304199 47.5875 1.1167 47.2042 3.45837C47.1083 4.0792 47.1083 4.65003 47.2542 5.3667C47.825 8.32503 52.8375 9.13753 53.5583 11ZM65.5917 12.9125C66.5917 12.9125 66.8833 12.2459 66.975 11.8625C67.025 11.7167 67.025 11.4792 67.025 11.3375V0.779197H70.65V11.0459C70.65 11.3334 70.65 11.8584 70.6083 12.0042C70.3667 14.675 68.2667 15.5334 65.6375 15.5334C63.0125 15.5334 60.9125 14.675 60.6708 12C60.6708 11.8584 60.625 11.3334 60.625 11.0459V0.779197H64.25V11.3334C64.25 11.525 64.25 11.7125 64.3 11.8584C64.3 12.2375 64.5917 12.9084 65.5917 12.9084M95.3917 12.7667C96.4417 12.7667 96.775 12.1 96.8708 11.7125C96.9167 11.5709 96.9167 11.3334 96.9167 11.1875V9.13336H95.4375V7.03336H100.5V10.8542C100.5 11.1417 100.5 11.3334 100.454 11.8125C100.212 14.4375 97.9667 15.3417 95.4375 15.3417C92.9083 15.3417 90.6625 14.4375 90.425 11.8084C90.375 11.3334 90.375 11.1417 90.375 10.8542V4.83753C90.375 4.60003 90.425 4.12086 90.425 3.8792C90.7583 1.20837 92.9083 0.350031 95.4375 0.350031C97.9667 0.350031 100.167 1.20836 100.45 3.88336C100.5 4.31253 100.5 4.83753 100.5 4.83753V5.3167H96.9167V4.5042C96.9167 4.5042 96.9167 4.17087 96.8708 3.9792C96.8208 3.64587 96.5375 2.9292 95.4375 2.9292C94.3875 2.9292 94.1042 3.59587 94.0042 3.9792C93.9583 4.1667 93.9583 4.40836 93.9583 4.64586V11.1875C93.9583 11.3792 93.9583 11.5709 94.0042 11.7125C94.0042 12.0959 94.3875 12.7667 95.3917 12.7667Z" fill="white"/>
</svg>
