<svg width="30" height="30" viewBox="0 0 30 30" fill="none" xmlns="http://www.w3.org/2000/svg">
<path d="M23.6592 1.99415C23.6592 2.4722 23.4693 2.93068 23.1313 3.26871C22.7933 3.60675 22.3348 3.79665 21.8567 3.79665C21.3787 3.79665 20.9202 3.60675 20.5822 3.26871C20.2441 2.93068 20.0542 2.4722 20.0542 1.99415C20.0542 1.5161 20.2441 1.05762 20.5822 0.719589C20.9202 0.381555 21.3787 0.19165 21.8567 0.19165C22.3348 0.19165 22.7933 0.381555 23.1313 0.719589C23.4693 1.05762 23.6592 1.5161 23.6592 1.99415Z" fill="#05C2DE"/>
<path d="M20.6156 6.5107C21.6198 6.34075 23.8498 5.56825 23.7803 7.53555C23.7734 7.7261 23.6567 8.01708 23.4301 8.40848C22.055 10.7852 24.527 13.3499 27.0479 12.9019C28.1191 12.7113 29.8161 12.0547 29.9577 13.8495C30.4289 19.7745 26.9166 25.4498 21.764 28.0223C12.8133 32.4925 2.49789 27.2601 0.32716 17.6682C-1.01699 11.7328 1.92108 5.97768 6.56896 2.40358C7.40326 1.7624 8.82981 0.917799 9.84694 1.47142C10.7405 1.9581 10.5525 3.23273 11.4357 3.83528C12.9987 4.9039 14.4716 4.35285 15.4939 2.90313C16.4467 1.55125 17.9917 2.39328 17.9376 3.83013C17.8732 5.55795 18.7796 6.8197 20.6156 6.5107ZM25.3845 15.5773C22.0748 14.9198 20.3495 12.8443 20.2087 9.35093C20.2074 9.317 20.193 9.28491 20.1685 9.26138C20.144 9.23785 20.1114 9.22473 20.0774 9.22475C18.0844 9.23677 16.6681 8.36384 15.8287 6.60598C15.8127 6.57328 15.7846 6.54795 15.7503 6.53505C15.7159 6.52216 15.6777 6.52266 15.6433 6.53645C13.0219 7.60422 10.7379 7.15703 8.79119 5.19488C8.73082 5.1346 8.69036 5.05637 8.67531 4.97085C8.65128 4.83524 8.57575 4.74253 8.44871 4.69275C8.41133 4.67763 8.37089 4.67184 8.33095 4.67588C8.291 4.67992 8.25275 4.69367 8.21954 4.71593C0.0310348 10.2161 1.68418 22.9907 10.9542 26.1786C14.3206 27.3356 17.6028 27.0687 20.801 25.3777C24.7665 23.2843 26.4428 20.1891 27.2153 15.8605C27.2182 15.8442 27.2178 15.8275 27.214 15.8114C27.2102 15.7953 27.2031 15.7801 27.1932 15.7668C27.1833 15.7536 27.1708 15.7425 27.1565 15.7342C27.1421 15.726 27.1262 15.7208 27.1097 15.7189C26.5226 15.6494 25.9072 15.6829 25.3845 15.5773Z" fill="#05C2DE"/>
<path d="M28.9303 2.7203C28.9303 3.03104 28.8068 3.32904 28.5871 3.54876C28.3674 3.76849 28.0694 3.89193 27.7586 3.89193C27.4479 3.89193 27.1499 3.76849 26.9302 3.54876C26.7105 3.32904 26.587 3.03104 26.587 2.7203C26.587 2.40957 26.7105 2.11156 26.9302 1.89184C27.1499 1.67211 27.4479 1.54868 27.7586 1.54868C28.0694 1.54868 28.3674 1.67211 28.5871 1.89184C28.8068 2.11156 28.9303 2.40957 28.9303 2.7203Z" fill="#05C2DE"/>
<path d="M29.2084 8.48573C29.2084 8.81354 29.0781 9.12792 28.8464 9.35971C28.6146 9.59151 28.3002 9.72173 27.9724 9.72173C27.6446 9.72173 27.3302 9.59151 27.0984 9.35971C26.8666 9.12792 26.7364 8.81354 26.7364 8.48573C26.7364 8.15792 26.8666 7.84354 27.0984 7.61174C27.3302 7.37995 27.6446 7.24973 27.9724 7.24973C28.3002 7.24973 28.6146 7.37995 28.8464 7.61174C29.0781 7.84354 29.2084 8.15792 29.2084 8.48573Z" fill="#05C2DE"/>
<path d="M8.47956 13.5024C8.22688 13.4909 7.97901 13.4282 7.7501 13.3178C7.52118 13.2074 7.31571 13.0515 7.14541 12.8589C6.97512 12.6664 6.84333 12.4411 6.75757 12.1957C6.67182 11.9504 6.63378 11.6899 6.64562 11.4291C6.65746 11.1683 6.71895 10.9124 6.82659 10.6758C6.93423 10.4393 7.0859 10.2268 7.27294 10.0505C7.45999 9.87421 7.67874 9.73757 7.91672 9.64837C8.1547 9.55917 8.40724 9.51916 8.65992 9.53064C8.91259 9.54211 9.16047 9.60484 9.38938 9.71524C9.6183 9.82564 9.82377 9.98155 9.99406 10.1741C10.1644 10.3666 10.2961 10.5919 10.3819 10.8373C10.4677 11.0826 10.5057 11.3431 10.4939 11.6039C10.482 11.8647 10.4205 12.1206 10.3129 12.3572C10.2053 12.5937 10.0536 12.8062 9.86654 12.9825C9.67949 13.1588 9.46074 13.2954 9.22276 13.3846C8.98478 13.4738 8.73224 13.5138 8.47956 13.5024Z" fill="#05C2DE"/>
<path d="M17.8423 13.7619C17.8423 14.2632 17.6432 14.7439 17.2887 15.0984C16.9343 15.4528 16.4535 15.652 15.9523 15.652C15.451 15.652 14.9703 15.4528 14.6158 15.0984C14.2613 14.7439 14.0622 14.2632 14.0622 13.7619C14.0622 13.2606 14.2613 12.7799 14.6158 12.4254C14.9703 12.071 15.451 11.8719 15.9523 11.8719C16.4535 11.8719 16.9343 12.071 17.2887 12.4254C17.6432 12.7799 17.8423 13.2606 17.8423 13.7619Z" fill="#05C2DE"/>
<path d="M11.8992 18.7857C11.8992 19.2966 11.6963 19.7865 11.3351 20.1477C10.9739 20.5089 10.4839 20.7118 9.97311 20.7118C9.46228 20.7118 8.97237 20.5089 8.61115 20.1477C8.24994 19.7865 8.04701 19.2966 8.04701 18.7857C8.04701 18.2749 8.24994 17.785 8.61115 17.4238C8.97237 17.0626 9.46228 16.8596 9.97311 16.8596C10.4839 16.8596 10.9739 17.0626 11.3351 17.4238C11.6963 17.785 11.8992 18.2749 11.8992 18.7857Z" fill="#05C2DE"/>
<path d="M16.829 23.0498C16.5839 23.0532 16.3404 23.0066 16.1126 22.9125C15.8848 22.8185 15.677 22.679 15.5012 22.5018C15.3253 22.3247 15.1848 22.1135 15.0877 21.8802C14.9907 21.6469 14.9389 21.3961 14.9353 21.1422C14.9282 20.6293 15.118 20.1348 15.463 19.7672C15.808 19.3997 16.2799 19.1894 16.775 19.1825C17.0201 19.179 17.2636 19.2257 17.4914 19.3197C17.7193 19.4137 17.927 19.5532 18.1029 19.7304C18.2787 19.9075 18.4192 20.1188 18.5163 20.3521C18.6134 20.5853 18.6652 20.8361 18.6687 21.09C18.6759 21.6029 18.4861 22.0975 18.1411 22.465C17.7961 22.8325 17.3241 23.0428 16.829 23.0498Z" fill="#05C2DE"/>
</svg>
