<svg width="100" height="20" viewBox="0 0 100 20" fill="none" xmlns="http://www.w3.org/2000/svg">
<path d="M68.5775 0.364258V12.6297C68.5775 14.5677 69.7067 15.3859 71.4767 15.3859C71.969 15.3859 72.2894 15.3366 72.4355 15.2882V13.6612C72.2167 13.6823 72.094 13.6823 71.8955 13.6823C71.0828 13.6823 70.4452 13.3463 70.4452 12.3914V0.365039L68.5775 0.364258ZM30.0456 0.724503C29.286 0.724503 28.7421 1.1793 28.7421 1.99434C28.7421 2.80938 29.286 3.26418 30.0456 3.26418C30.809 3.26418 31.349 2.78516 31.349 1.99434C31.349 1.1793 30.809 0.724503 30.0456 0.724503ZM75.1893 0.724503C74.429 0.724503 73.8859 1.1793 73.8859 1.99434C73.8859 2.80938 74.429 3.26418 75.1893 3.26418C75.952 3.26418 76.4927 2.78516 76.4927 1.99434C76.4927 1.1793 75.952 0.724503 75.1893 0.724503ZM24.588 1.46687V11.2161C24.588 12.6047 24.0199 13.5635 22.3749 13.5635C21.6607 13.5635 20.9496 13.4448 20.3573 13.2033V15.0498C20.8972 15.2421 21.6881 15.407 22.6953 15.407C25.3757 15.407 26.5291 13.6331 26.5291 11.0973V1.46609L24.588 1.46687ZM59.2307 1.46687L53.6263 15.3124H55.8143L56.9935 12.1992C58.1992 12.4125 59.3065 12.5586 60.4123 12.5586C61.5446 12.5586 62.6495 12.4398 63.9288 12.1749L65.1095 15.3124H67.2983L61.6907 1.46609L59.2307 1.46687ZM0 2.27488C0 4.83018 2.06691 6.91116 4.60033 6.91116H8.85214V11.2278H13.4494V3.04459C13.4494 2.64762 13.129 2.29988 12.7382 2.29988L0 2.27488ZM8.85214 11.2278H4.60033V6.91116H0V15.0983C0 15.4953 0.32039 15.8399 0.71111 15.8399H13.4251C13.4268 14.6229 12.9468 13.4548 12.0899 12.5906C11.2331 11.7264 10.0691 11.2365 8.85214 11.2278ZM60.4607 2.99771L63.3396 10.5933C62.2346 10.7605 61.2969 10.8551 60.3873 10.8793C59.53 10.8793 58.6415 10.7816 57.585 10.6136L60.4607 2.99771ZM44.7499 4.55512C41.7249 4.55512 40.2019 7.06979 40.2019 10.0408C40.2019 13.1533 41.6546 15.5257 44.5295 15.5257C46.2026 15.5257 47.5029 14.8084 48.1929 13.419V15.3085H50.0606V4.77314H48.1929V6.61968C47.5545 5.25216 46.3214 4.55902 44.7499 4.55902V4.55512ZM82.7622 4.55512C79.7646 4.55512 78.2627 7.06979 78.2627 10.0408C78.2627 13.1533 79.6888 15.5257 82.5426 15.5257C84.2149 15.5257 85.516 14.8084 86.2053 13.419V14.4231C86.2053 16.3892 85.2714 17.8029 82.5669 17.8029C81.2384 17.8029 79.9842 17.5614 78.8066 17.1801V18.95C79.8623 19.286 80.8454 19.5275 82.6646 19.5275C86.5264 19.5275 88.0252 17.4426 88.0252 14.3536V4.77236H86.2053V6.61655C85.5645 5.25138 84.3376 4.55824 82.7622 4.55824V4.55512ZM96.0928 4.57856C94.6393 4.57856 93.3609 5.27482 92.674 6.52044V4.79658H90.8064V15.3343H92.674V9.46725C92.674 7.33626 93.8766 6.21021 95.5982 6.21021C97.3689 6.21021 98.1558 7.04635 98.1558 8.94212V15.3093H100V9.15545C100 6.25631 98.5747 4.58325 96.0928 4.58325V4.57856ZM39.0813 4.59106C37.216 4.59419 36.2267 5.44908 35.6289 6.61499V4.77079H33.8097V15.3124H35.6289V9.08434C35.6289 6.83223 37.0785 6.13831 39.4658 6.37743V4.60357C39.3377 4.59739 39.2096 4.59427 39.0813 4.59419V4.59106ZM29.1117 4.77079V15.3085H30.9794V4.77314L29.1117 4.77079ZM74.2305 4.77079V15.3085H76.0981V4.77314L74.2305 4.77079ZM45.2164 6.23052C46.816 6.23052 48.1687 7.26202 48.1687 9.60947V10.4495C48.1687 12.7962 46.6941 13.8253 45.0211 13.8253C43.1042 13.8253 42.0696 12.5797 42.0453 10.0158C42.0453 7.57381 43.1284 6.23052 45.2164 6.23052ZM83.2327 6.23052C84.8291 6.23052 86.181 7.26202 86.181 9.60947V10.4495C86.181 12.7962 84.7065 13.8253 83.0342 13.8253C81.1173 13.8253 80.085 12.5797 80.0577 10.0158C80.0577 7.57381 81.1415 6.23052 83.2327 6.23052Z" fill="white"/>
</svg>
