<svg width="100" height="28" viewBox="0 0 100 28" fill="none" xmlns="http://www.w3.org/2000/svg">
<path d="M18.1 20.6042C18.4125 21.775 18.9125 22.2292 19.7958 22.2292C20.7125 22.2292 21.1917 21.6792 21.1917 20.6042V0.629167H26.9375V20.6042C26.9375 23.4167 26.5708 24.6375 25.1458 26.0625C24.1167 27.0958 22.2167 27.8917 19.8208 27.8917C17.8875 27.8917 16.0333 27.25 14.8542 26.0667C13.8167 25.025 13.2458 23.9625 12.3583 20.6042L8.83333 7.2875C8.525 6.11667 8.025 5.6625 7.14167 5.6625C6.225 5.6625 5.74167 6.2125 5.74167 7.2875V27.2625H0V7.2875C0 4.475 0.366667 3.25417 1.79167 1.82917C2.82083 0.795834 4.72083 0 7.11667 0C9.05 0 10.9042 0.641665 12.0833 1.825C13.1208 2.86667 13.6875 3.92917 14.5792 7.2875L18.1 20.6042ZM94.0625 27.2625L87.4333 6.5125C87.3829 6.31592 87.2983 6.12974 87.1833 5.9625C87.0898 5.84898 86.971 5.75895 86.8364 5.69962C86.7018 5.64029 86.5552 5.6133 86.4083 5.62083C86.2621 5.61396 86.1163 5.64126 85.9825 5.70057C85.8487 5.75988 85.7306 5.84956 85.6375 5.9625C85.5225 6.1297 85.4378 6.31589 85.3875 6.5125L78.7583 27.2625H72.8208L80.0667 4.59583C80.4417 3.41667 80.9833 2.4125 81.6667 1.74583C82.8417 0.599999 84.225 0 86.4083 0C88.5958 0 89.9792 0.6 91.1542 1.75C91.8375 2.41667 92.3792 3.41667 92.7542 4.59583L100 27.2625H94.0625ZM64.7125 27.2625C68.475 27.2625 70.3125 26.4625 71.7625 25.0208C73.3667 23.425 74.1333 21.6792 74.1333 19.075C74.1333 16.7708 73.2917 14.6417 72.0083 13.3667C70.3292 11.7 68.2458 11.1708 64.8458 11.1708H60.0875C58.2708 11.1708 57.5458 10.95 56.9708 10.3875C56.5792 10 56.3917 9.42917 56.3917 8.75C56.3917 8.05 56.5583 7.35834 57.0417 6.88334C57.4708 6.46667 58.0542 6.27083 59.1708 6.27083H72.925V0.629167H60.2208C56.4583 0.629167 54.625 1.42917 53.175 2.87083C51.5708 4.46667 50.8 6.2125 50.8 8.81667C50.8 11.1208 51.6458 13.25 52.925 14.525C54.6083 16.1917 56.6917 16.7208 60.0917 16.7208H64.8458C66.6667 16.7208 67.3875 16.9417 67.9625 17.5042C68.3583 17.8917 68.5458 18.4625 68.5458 19.1417C68.5458 19.8458 68.375 20.5375 67.8917 21.0083C67.4667 21.425 66.8833 21.6208 65.7667 21.6208H51.5792L46.1375 4.59583C45.7625 3.41667 45.2208 2.4125 44.5375 1.74583C43.3625 0.599999 41.975 0 39.7917 0C37.6083 0 36.2208 0.6 35.05 1.75C34.3625 2.41667 33.825 3.41667 33.4458 4.59583L26.2042 27.2625H32.1375L38.7708 6.5125C38.8212 6.31592 38.9059 6.12974 39.0208 5.9625C39.1139 5.84956 39.2321 5.75988 39.3659 5.70057C39.4997 5.64126 39.6455 5.61396 39.7917 5.62083C40.1333 5.62083 40.3833 5.7375 40.5667 5.9625C40.6818 6.12966 40.7664 6.31586 40.8167 6.5125L47.4458 27.2625H64.7125Z" fill="white"/>
</svg>
