<svg width="191" height="16" viewBox="0 0 191 16" fill="none" xmlns="http://www.w3.org/2000/svg">
<path d="M0.409091 0.809437H2.02273L5.25 6.24126H5.38636L8.61364 0.809437H10.2273L6.02273 7.65035V12.4458H4.61364V7.65035L0.409091 0.809437ZM14.179 12.6276C13.3911 12.6276 12.6998 12.4401 12.1051 12.0651C11.5142 11.6901 11.0521 11.1655 10.7188 10.4913C10.3892 9.81701 10.2244 9.02913 10.2244 8.12762C10.2244 7.21853 10.3892 6.42497 10.7188 5.74694C11.0521 5.06891 11.5142 4.54239 12.1051 4.16739C12.6998 3.79239 13.3911 3.60489 14.179 3.60489C14.9669 3.60489 15.6563 3.79239 16.2472 4.16739C16.8419 4.54239 17.304 5.06891 17.6335 5.74694C17.9669 6.42497 18.1335 7.21853 18.1335 8.12762C18.1335 9.02913 17.9669 9.81701 17.6335 10.4913C17.304 11.1655 16.8419 11.6901 16.2472 12.0651C15.6563 12.4401 14.9669 12.6276 14.179 12.6276ZM14.179 11.4231C14.7775 11.4231 15.2699 11.2697 15.6562 10.9628C16.0426 10.656 16.3286 10.2526 16.5142 9.75262C16.6998 9.25262 16.7926 8.71095 16.7926 8.12762C16.7926 7.54429 16.6998 7.00072 16.5142 6.49694C16.3286 5.99315 16.0426 5.58595 15.6562 5.27535C15.2699 4.96474 14.7775 4.80944 14.179 4.80944C13.5805 4.80944 13.0881 4.96474 12.7017 5.27535C12.3153 5.58595 12.0294 5.99315 11.8438 6.49694C11.6581 7.00072 11.5653 7.54429 11.5653 8.12762C11.5653 8.71095 11.6581 9.25262 11.8438 9.75262C12.0294 10.2526 12.3153 10.656 12.7017 10.9628C13.0881 11.2697 13.5805 11.4231 14.179 11.4231ZM25.6804 8.87762V3.71853H27.0213V12.4458H25.6804V10.9685H25.5895C25.3849 11.4117 25.0668 11.7886 24.6349 12.0992C24.2031 12.406 23.6577 12.5594 22.9986 12.5594C22.4531 12.5594 21.9683 12.4401 21.544 12.2015C21.1198 11.9591 20.7865 11.5954 20.544 11.1106C20.3016 10.6219 20.1804 10.0064 20.1804 9.26398V3.71853H21.5213V9.17307C21.5213 9.80944 21.6993 10.317 22.0554 10.6958C22.4152 11.0746 22.8736 11.264 23.4304 11.264C23.7637 11.264 24.1027 11.1788 24.4474 11.0083C24.7959 10.8378 25.0876 10.5765 25.3224 10.2242C25.5611 9.87194 25.6804 9.42307 25.6804 8.87762ZM36.5455 12.6503C35.9924 12.6503 35.4905 12.5462 35.0398 12.3378C34.589 12.1257 34.2311 11.8208 33.9659 11.4231C33.7008 11.0216 33.5682 10.5367 33.5682 9.96853C33.5682 9.46853 33.6667 9.06322 33.8636 8.75262C34.0606 8.43822 34.3239 8.19201 34.6534 8.01398C34.983 7.83595 35.3466 7.70338 35.7443 7.61626C36.1458 7.52535 36.5492 7.45338 36.9545 7.40035C37.4848 7.33216 37.9148 7.28103 38.2443 7.24694C38.5777 7.20906 38.8201 7.14656 38.9716 7.05944C39.1269 6.97232 39.2045 6.8208 39.2045 6.60489V6.55944C39.2045 5.99883 39.0511 5.56322 38.7443 5.25262C38.4413 4.94201 37.9811 4.78671 37.3636 4.78671C36.7235 4.78671 36.2216 4.92686 35.858 5.20716C35.4943 5.48747 35.2386 5.78671 35.0909 6.10489L33.8182 5.65035C34.0455 5.12004 34.3485 4.70716 34.7273 4.41171C35.1098 4.11247 35.5265 3.90413 35.9773 3.78671C36.4318 3.6655 36.8788 3.60489 37.3182 3.60489C37.5985 3.60489 37.9205 3.63898 38.2841 3.70716C38.6515 3.77156 39.0057 3.90603 39.3466 4.11057C39.6913 4.31512 39.9773 4.62383 40.2045 5.03671C40.4318 5.44959 40.5455 6.00262 40.5455 6.6958V12.4458H39.2045V11.264H39.1364C39.0455 11.4534 38.8939 11.656 38.6818 11.8719C38.4697 12.0878 38.1875 12.2716 37.8352 12.4231C37.483 12.5746 37.053 12.6503 36.5455 12.6503ZM36.75 11.4458C37.2803 11.4458 37.7273 11.3416 38.0909 11.1333C38.4583 10.925 38.7348 10.656 38.9205 10.3265C39.1098 9.99694 39.2045 9.65035 39.2045 9.28671V8.05944C39.1477 8.12762 39.0227 8.19012 38.8295 8.24694C38.6402 8.29997 38.4205 8.34732 38.1705 8.38898C37.9242 8.42686 37.6837 8.46095 37.4489 8.49126C37.2178 8.51777 37.0303 8.5405 36.8864 8.55944C36.5379 8.60489 36.2121 8.67876 35.9091 8.78103C35.6098 8.87951 35.3674 9.02913 35.1818 9.22989C35 9.42686 34.9091 9.6958 34.9091 10.0367C34.9091 10.5026 35.0814 10.8549 35.4261 11.0935C35.7746 11.3284 36.2159 11.4458 36.75 11.4458ZM42.9929 12.4458V3.71853H44.2884V5.03671H44.3793C44.5384 4.60489 44.8262 4.25451 45.2429 3.98557C45.6596 3.71663 46.1293 3.58216 46.652 3.58216C46.7505 3.58216 46.8736 3.58406 47.0213 3.58785C47.169 3.59163 47.2808 3.59732 47.3565 3.60489V4.96853C47.3111 4.95716 47.2069 4.94012 47.044 4.91739C46.8849 4.89088 46.7164 4.87762 46.5384 4.87762C46.1141 4.87762 45.7353 4.96663 45.402 5.14466C45.0724 5.31891 44.8111 5.56133 44.6179 5.87194C44.4285 6.17876 44.3338 6.52913 44.3338 6.92307V12.4458H42.9929ZM52.3395 12.6276C51.4986 12.6276 50.7732 12.442 50.1634 12.0708C49.5573 11.6958 49.0895 11.1731 48.7599 10.5026C48.4342 9.82838 48.2713 9.04429 48.2713 8.15035C48.2713 7.25641 48.4342 6.46853 48.7599 5.78671C49.0895 5.1011 49.5478 4.56701 50.1349 4.18444C50.7259 3.79807 51.4152 3.60489 52.2031 3.60489C52.6577 3.60489 53.1065 3.68065 53.5497 3.83216C53.9929 3.98368 54.3963 4.22989 54.7599 4.5708C55.1236 4.90792 55.4134 5.35489 55.6293 5.91171C55.8452 6.46853 55.9531 7.15413 55.9531 7.96853V8.53671H49.2259V7.37762H54.5895C54.5895 6.88519 54.491 6.4458 54.294 6.05944C54.1009 5.67307 53.8243 5.36815 53.4645 5.14466C53.1084 4.92118 52.688 4.80944 52.2031 4.80944C51.669 4.80944 51.2069 4.94201 50.8168 5.20716C50.4304 5.46853 50.133 5.80944 49.9247 6.22989C49.7164 6.65035 49.6122 7.1011 49.6122 7.58216V8.35489C49.6122 9.01398 49.7259 9.57269 49.9531 10.031C50.1842 10.4856 50.5043 10.8322 50.9134 11.0708C51.3224 11.3056 51.7978 11.4231 52.3395 11.4231C52.6918 11.4231 53.0099 11.3738 53.294 11.2753C53.5819 11.1731 53.83 11.0216 54.0384 10.8208C54.2467 10.6163 54.4077 10.3625 54.5213 10.0594L55.8168 10.4231C55.6804 10.8625 55.4512 11.2488 55.1293 11.5822C54.8073 11.9117 54.4096 12.1693 53.9361 12.3549C53.4626 12.5367 52.9304 12.6276 52.3395 12.6276ZM62.4929 12.4458V3.71853H63.8338V12.4458H62.4929ZM63.1747 2.26398C62.9134 2.26398 62.688 2.17497 62.4986 1.99694C62.313 1.81891 62.2202 1.60489 62.2202 1.35489C62.2202 1.10489 62.313 0.890876 62.4986 0.712846C62.688 0.534816 62.9134 0.445801 63.1747 0.445801C63.4361 0.445801 63.6596 0.534816 63.8452 0.712846C64.0346 0.890876 64.1293 1.10489 64.1293 1.35489C64.1293 1.60489 64.0346 1.81891 63.8452 1.99694C63.6596 2.17497 63.4361 2.26398 63.1747 2.26398ZM67.6307 7.1958V12.4458H66.2898V3.71853H67.5852V5.08216H67.6989C67.9034 4.63898 68.214 4.28292 68.6307 4.01398C69.0473 3.74126 69.5852 3.60489 70.2443 3.60489C70.8352 3.60489 71.3523 3.7261 71.7955 3.96853C72.2386 4.20716 72.5833 4.5708 72.8295 5.05944C73.0758 5.54429 73.1989 6.15792 73.1989 6.90035V12.4458H71.858V6.99126C71.858 6.30565 71.6799 5.77156 71.3239 5.38898C70.9678 5.00262 70.4792 4.80944 69.858 4.80944C69.4299 4.80944 69.0473 4.90224 68.7102 5.08785C68.3769 5.27345 68.1136 5.54429 67.9205 5.90035C67.7273 6.25641 67.6307 6.68822 67.6307 7.1958ZM83.6719 15.9003C83.0241 15.9003 82.4673 15.817 82.0014 15.6503C81.5355 15.4875 81.1473 15.2716 80.8366 15.0026C80.5298 14.7375 80.2855 14.4534 80.1037 14.1503L81.1719 13.4003C81.2931 13.5594 81.4465 13.7413 81.6321 13.9458C81.8177 14.1541 82.0715 14.3341 82.3935 14.4856C82.7192 14.6409 83.1454 14.7185 83.6719 14.7185C84.3764 14.7185 84.9579 14.5481 85.4162 14.2072C85.8745 13.8663 86.1037 13.3322 86.1037 12.6049V10.8322H85.9901C85.8916 10.9913 85.7514 11.1882 85.5696 11.4231C85.3916 11.6541 85.134 11.8606 84.7969 12.0424C84.4635 12.2204 84.0128 12.3094 83.4446 12.3094C82.7401 12.3094 82.1075 12.1428 81.5469 11.8094C80.9901 11.4761 80.5488 10.9913 80.223 10.3549C79.901 9.71853 79.7401 8.9458 79.7401 8.03671C79.7401 7.14277 79.8973 6.36436 80.2116 5.70148C80.526 5.03482 80.9635 4.51966 81.5241 4.15603C82.0848 3.7886 82.7325 3.60489 83.4673 3.60489C84.0355 3.60489 84.4863 3.69959 84.8196 3.88898C85.1567 4.07459 85.4143 4.28671 85.5923 4.52535C85.7741 4.76019 85.9143 4.95338 86.0128 5.10489H86.1491V3.71853H87.4446V12.6958C87.4446 13.4458 87.2741 14.0556 86.9332 14.5253C86.5961 14.9988 86.1416 15.3454 85.5696 15.5651C85.0014 15.7886 84.3688 15.9003 83.6719 15.9003ZM83.6264 11.1049C84.1643 11.1049 84.6188 10.9818 84.9901 10.7356C85.3613 10.4894 85.6435 10.1352 85.8366 9.67307C86.0298 9.21095 86.1264 8.65792 86.1264 8.01398C86.1264 7.38519 86.0317 6.83027 85.8423 6.34921C85.6529 5.86815 85.3726 5.49126 85.0014 5.21853C84.6302 4.9458 84.1719 4.80944 83.6264 4.80944C83.0582 4.80944 82.5848 4.95338 82.206 5.24126C81.831 5.52913 81.5488 5.9155 81.3594 6.40035C81.1738 6.88519 81.081 7.42307 81.081 8.01398C81.081 8.62004 81.1757 9.15603 81.3651 9.62194C81.5582 10.0841 81.8423 10.4477 82.2173 10.7128C82.5961 10.9742 83.0658 11.1049 83.6264 11.1049ZM93.4446 12.6276C92.6567 12.6276 91.9654 12.4401 91.3707 12.0651C90.7798 11.6901 90.3177 11.1655 89.9844 10.4913C89.6548 9.81701 89.4901 9.02913 89.4901 8.12762C89.4901 7.21853 89.6548 6.42497 89.9844 5.74694C90.3177 5.06891 90.7798 4.54239 91.3707 4.16739C91.9654 3.79239 92.6567 3.60489 93.4446 3.60489C94.2325 3.60489 94.9219 3.79239 95.5128 4.16739C96.1075 4.54239 96.5696 5.06891 96.8991 5.74694C97.2325 6.42497 97.3991 7.21853 97.3991 8.12762C97.3991 9.02913 97.2325 9.81701 96.8991 10.4913C96.5696 11.1655 96.1075 11.6901 95.5128 12.0651C94.9219 12.4401 94.2325 12.6276 93.4446 12.6276ZM93.4446 11.4231C94.0431 11.4231 94.5355 11.2697 94.9219 10.9628C95.3082 10.656 95.5942 10.2526 95.7798 9.75262C95.9654 9.25262 96.0582 8.71095 96.0582 8.12762C96.0582 7.54429 95.9654 7.00072 95.7798 6.49694C95.5942 5.99315 95.3082 5.58595 94.9219 5.27535C94.5355 4.96474 94.0431 4.80944 93.4446 4.80944C92.8461 4.80944 92.3537 4.96474 91.9673 5.27535C91.581 5.58595 91.295 5.99315 91.1094 6.49694C90.9238 7.00072 90.831 7.54429 90.831 8.12762C90.831 8.71095 90.9238 9.25262 91.1094 9.75262C91.295 10.2526 91.581 10.656 91.9673 10.9628C92.3537 11.2697 92.8461 11.4231 93.4446 11.4231ZM102.991 12.6276C102.204 12.6276 101.512 12.4401 100.918 12.0651C100.327 11.6901 99.8646 11.1655 99.5312 10.4913C99.2017 9.81701 99.0369 9.02913 99.0369 8.12762C99.0369 7.21853 99.2017 6.42497 99.5312 5.74694C99.8646 5.06891 100.327 4.54239 100.918 4.16739C101.512 3.79239 102.204 3.60489 102.991 3.60489C103.779 3.60489 104.469 3.79239 105.06 4.16739C105.654 4.54239 106.116 5.06891 106.446 5.74694C106.779 6.42497 106.946 7.21853 106.946 8.12762C106.946 9.02913 106.779 9.81701 106.446 10.4913C106.116 11.1655 105.654 11.6901 105.06 12.0651C104.469 12.4401 103.779 12.6276 102.991 12.6276ZM102.991 11.4231C103.59 11.4231 104.082 11.2697 104.469 10.9628C104.855 10.656 105.141 10.2526 105.327 9.75262C105.512 9.25262 105.605 8.71095 105.605 8.12762C105.605 7.54429 105.512 7.00072 105.327 6.49694C105.141 5.99315 104.855 5.58595 104.469 5.27535C104.082 4.96474 103.59 4.80944 102.991 4.80944C102.393 4.80944 101.901 4.96474 101.514 5.27535C101.128 5.58595 100.842 5.99315 100.656 6.49694C100.471 7.00072 100.378 7.54429 100.378 8.12762C100.378 8.71095 100.471 9.25262 100.656 9.75262C100.842 10.2526 101.128 10.656 101.514 10.9628C101.901 11.2697 102.393 11.4231 102.991 11.4231ZM112.288 12.6276C111.561 12.6276 110.919 12.4439 110.362 12.0765C109.805 11.7053 109.37 11.1825 109.055 10.5083C108.741 9.83027 108.584 9.02913 108.584 8.10489C108.584 7.18822 108.741 6.39277 109.055 5.71853C109.37 5.04429 109.807 4.52345 110.368 4.15603C110.929 3.7886 111.576 3.60489 112.311 3.60489C112.879 3.60489 113.328 3.69959 113.658 3.88898C113.991 4.07459 114.245 4.28671 114.419 4.52535C114.597 4.76019 114.735 4.95338 114.834 5.10489H114.947V0.809437H116.288V12.4458H114.993V11.1049H114.834C114.735 11.264 114.595 11.4647 114.413 11.7072C114.232 11.9458 113.972 12.1598 113.635 12.3492C113.298 12.5348 112.849 12.6276 112.288 12.6276ZM112.47 11.4231C113.008 11.4231 113.463 11.2829 113.834 11.0026C114.205 10.7185 114.487 10.3265 114.68 9.82648C114.874 9.32269 114.97 8.74126 114.97 8.08216C114.97 7.43065 114.875 6.86057 114.686 6.37194C114.497 5.87951 114.216 5.49694 113.845 5.22421C113.474 4.94769 113.016 4.80944 112.47 4.80944C111.902 4.80944 111.429 4.95527 111.05 5.24694C110.675 5.53482 110.393 5.92686 110.203 6.42307C110.018 6.9155 109.925 7.46853 109.925 8.08216C109.925 8.70338 110.019 9.26777 110.209 9.77535C110.402 10.2791 110.686 10.6806 111.061 10.9799C111.44 11.2753 111.91 11.4231 112.47 11.4231ZM126.976 12.6276C126.158 12.6276 125.453 12.4344 124.862 12.0481C124.271 11.6617 123.817 11.1295 123.499 10.4515C123.18 9.77345 123.021 8.99883 123.021 8.12762C123.021 7.24126 123.184 6.45906 123.51 5.78103C123.839 5.09921 124.298 4.56701 124.885 4.18444C125.476 3.79807 126.165 3.60489 126.953 3.60489C127.567 3.60489 128.12 3.71853 128.612 3.9458C129.105 4.17307 129.508 4.49126 129.822 4.90035C130.137 5.30944 130.332 5.78671 130.408 6.33216H129.067C128.964 5.93444 128.737 5.58216 128.385 5.27535C128.036 4.96474 127.567 4.80944 126.976 4.80944C126.453 4.80944 125.995 4.9458 125.601 5.21853C125.211 5.48747 124.906 5.86815 124.686 6.36057C124.47 6.84921 124.362 7.42307 124.362 8.08216C124.362 8.75641 124.468 9.34353 124.68 9.84353C124.896 10.3435 125.199 10.7318 125.589 11.0083C125.983 11.2848 126.446 11.4231 126.976 11.4231C127.324 11.4231 127.641 11.3625 127.925 11.2413C128.209 11.12 128.449 10.9458 128.646 10.7185C128.843 10.4913 128.983 10.2185 129.067 9.90035H130.408C130.332 10.4155 130.144 10.8795 129.845 11.2924C129.55 11.7015 129.158 12.0272 128.669 12.2697C128.184 12.5083 127.62 12.6276 126.976 12.6276ZM135.913 12.6276C135.125 12.6276 134.434 12.4401 133.839 12.0651C133.249 11.6901 132.786 11.1655 132.453 10.4913C132.124 9.81701 131.959 9.02913 131.959 8.12762C131.959 7.21853 132.124 6.42497 132.453 5.74694C132.786 5.06891 133.249 4.54239 133.839 4.16739C134.434 3.79239 135.125 3.60489 135.913 3.60489C136.701 3.60489 137.391 3.79239 137.982 4.16739C138.576 4.54239 139.038 5.06891 139.368 5.74694C139.701 6.42497 139.868 7.21853 139.868 8.12762C139.868 9.02913 139.701 9.81701 139.368 10.4913C139.038 11.1655 138.576 11.6901 137.982 12.0651C137.391 12.4401 136.701 12.6276 135.913 12.6276ZM135.913 11.4231C136.512 11.4231 137.004 11.2697 137.391 10.9628C137.777 10.656 138.063 10.2526 138.249 9.75262C138.434 9.25262 138.527 8.71095 138.527 8.12762C138.527 7.54429 138.434 7.00072 138.249 6.49694C138.063 5.99315 137.777 5.58595 137.391 5.27535C137.004 4.96474 136.512 4.80944 135.913 4.80944C135.315 4.80944 134.822 4.96474 134.436 5.27535C134.05 5.58595 133.764 5.99315 133.578 6.49694C133.393 7.00072 133.3 7.54429 133.3 8.12762C133.3 8.71095 133.393 9.25262 133.578 9.75262C133.764 10.2526 134.05 10.656 134.436 10.9628C134.822 11.2697 135.315 11.4231 135.913 11.4231ZM141.915 12.4458V3.71853H143.21V5.08216H143.324C143.506 4.61626 143.799 4.25451 144.205 3.99694C144.61 3.73557 145.097 3.60489 145.665 3.60489C146.241 3.60489 146.72 3.73557 147.102 3.99694C147.489 4.25451 147.79 4.61626 148.006 5.08216H148.097C148.32 4.63141 148.655 4.27345 149.102 4.0083C149.549 3.73936 150.085 3.60489 150.71 3.60489C151.491 3.60489 152.129 3.84921 152.625 4.33785C153.121 4.82269 153.369 5.57838 153.369 6.60489V12.4458H152.028V6.60489C152.028 5.96095 151.852 5.50072 151.5 5.22421C151.148 4.94769 150.733 4.80944 150.256 4.80944C149.642 4.80944 149.167 4.99504 148.83 5.36626C148.492 5.73368 148.324 6.19959 148.324 6.76398V12.4458H146.96V6.46853C146.96 5.97232 146.799 5.57269 146.477 5.26966C146.155 4.96285 145.741 4.80944 145.233 4.80944C144.884 4.80944 144.559 4.90224 144.256 5.08785C143.956 5.27345 143.714 5.53103 143.528 5.86057C143.347 6.18633 143.256 6.56322 143.256 6.99126V12.4458H141.915ZM155.821 15.7185V3.71853H157.116V5.10489H157.276C157.374 4.95338 157.51 4.76019 157.685 4.52535C157.863 4.28671 158.116 4.07459 158.446 3.88898C158.779 3.69959 159.23 3.60489 159.798 3.60489C160.533 3.60489 161.181 3.7886 161.741 4.15603C162.302 4.52345 162.74 5.04429 163.054 5.71853C163.368 6.39277 163.526 7.18822 163.526 8.10489C163.526 9.02913 163.368 9.83027 163.054 10.5083C162.74 11.1825 162.304 11.7053 161.747 12.0765C161.19 12.4439 160.548 12.6276 159.821 12.6276C159.26 12.6276 158.812 12.5348 158.474 12.3492C158.137 12.1598 157.878 11.9458 157.696 11.7072C157.514 11.4647 157.374 11.264 157.276 11.1049H157.162V15.7185H155.821ZM157.139 8.08216C157.139 8.74126 157.236 9.32269 157.429 9.82648C157.622 10.3265 157.904 10.7185 158.276 11.0026C158.647 11.2829 159.101 11.4231 159.639 11.4231C160.2 11.4231 160.668 11.2753 161.043 10.9799C161.421 10.6806 161.705 10.2791 161.895 9.77535C162.088 9.26777 162.185 8.70338 162.185 8.08216C162.185 7.46853 162.09 6.9155 161.901 6.42307C161.715 5.92686 161.433 5.53482 161.054 5.24694C160.679 4.95527 160.207 4.80944 159.639 4.80944C159.094 4.80944 158.635 4.94769 158.264 5.22421C157.893 5.49694 157.613 5.87951 157.423 6.37194C157.234 6.86057 157.139 7.43065 157.139 8.08216ZM168.139 12.6503C167.586 12.6503 167.084 12.5462 166.634 12.3378C166.183 12.1257 165.825 11.8208 165.56 11.4231C165.295 11.0216 165.162 10.5367 165.162 9.96853C165.162 9.46853 165.26 9.06322 165.457 8.75262C165.654 8.43822 165.918 8.19201 166.247 8.01398C166.577 7.83595 166.94 7.70338 167.338 7.61626C167.74 7.52535 168.143 7.45338 168.548 7.40035C169.079 7.33216 169.509 7.28103 169.838 7.24694C170.171 7.20906 170.414 7.14656 170.565 7.05944C170.721 6.97232 170.798 6.8208 170.798 6.60489V6.55944C170.798 5.99883 170.645 5.56322 170.338 5.25262C170.035 4.94201 169.575 4.78671 168.957 4.78671C168.317 4.78671 167.815 4.92686 167.452 5.20716C167.088 5.48747 166.832 5.78671 166.685 6.10489L165.412 5.65035C165.639 5.12004 165.942 4.70716 166.321 4.41171C166.704 4.11247 167.12 3.90413 167.571 3.78671C168.026 3.6655 168.473 3.60489 168.912 3.60489C169.192 3.60489 169.514 3.63898 169.878 3.70716C170.245 3.77156 170.599 3.90603 170.94 4.11057C171.285 4.31512 171.571 4.62383 171.798 5.03671C172.026 5.44959 172.139 6.00262 172.139 6.6958V12.4458H170.798V11.264H170.73C170.639 11.4534 170.488 11.656 170.276 11.8719C170.063 12.0878 169.781 12.2716 169.429 12.4231C169.077 12.5746 168.647 12.6503 168.139 12.6503ZM168.344 11.4458C168.874 11.4458 169.321 11.3416 169.685 11.1333C170.052 10.925 170.329 10.656 170.514 10.3265C170.704 9.99694 170.798 9.65035 170.798 9.28671V8.05944C170.741 8.12762 170.616 8.19012 170.423 8.24694C170.234 8.29997 170.014 8.34732 169.764 8.38898C169.518 8.42686 169.277 8.46095 169.043 8.49126C168.812 8.51777 168.624 8.5405 168.48 8.55944C168.132 8.60489 167.806 8.67876 167.503 8.78103C167.204 8.87951 166.961 9.02913 166.776 9.22989C166.594 9.42686 166.503 9.6958 166.503 10.0367C166.503 10.5026 166.675 10.8549 167.02 11.0935C167.368 11.3284 167.81 11.4458 168.344 11.4458ZM175.928 7.1958V12.4458H174.587V3.71853H175.882V5.08216H175.996C176.2 4.63898 176.511 4.28292 176.928 4.01398C177.344 3.74126 177.882 3.60489 178.541 3.60489C179.132 3.60489 179.649 3.7261 180.092 3.96853C180.536 4.20716 180.88 4.5708 181.126 5.05944C181.373 5.54429 181.496 6.15792 181.496 6.90035V12.4458H180.155V6.99126C180.155 6.30565 179.977 5.77156 179.621 5.38898C179.265 5.00262 178.776 4.80944 178.155 4.80944C177.727 4.80944 177.344 4.90224 177.007 5.08785C176.674 5.27345 176.411 5.54429 176.217 5.90035C176.024 6.25641 175.928 6.68822 175.928 7.1958ZM184.497 15.7185C184.27 15.7185 184.067 15.6996 183.889 15.6617C183.711 15.6276 183.588 15.5935 183.52 15.5594L183.861 14.3776C184.187 14.461 184.474 14.4913 184.724 14.4685C184.974 14.4458 185.196 14.3341 185.389 14.1333C185.586 13.9363 185.766 13.6163 185.929 13.1731L186.179 12.4913L182.952 3.71853H184.406L186.815 10.6731H186.906L189.315 3.71853H190.77L187.065 13.7185C186.899 14.1693 186.692 14.5424 186.446 14.8378C186.2 15.1371 185.914 15.3587 185.588 15.5026C185.266 15.6466 184.902 15.7185 184.497 15.7185Z" fill="white"/>
</svg>
